<svg width="208" height="81" viewBox="0 0 208 81" fill="none" xmlns="http://www.w3.org/2000/svg">
<ellipse cx="16.9" cy="40.8241" rx="16.9" ry="16.848" fill="white"/>
<path d="M42.8621 43.8894V49.375H38.2389V34.2549H44.6034C46.9019 34.2549 48.173 34.5934 49.2439 35.4527C50.2887 36.312 50.8982 37.6313 50.8982 39.0808C50.8982 41.9798 48.7303 43.8894 45.4566 43.8894H42.8708H42.8621ZM42.7924 40.6432H44.3335C45.7178 40.6432 46.3447 40.1918 46.3447 39.1503C46.3447 38.1955 45.7439 37.7181 44.4728 37.7181H42.8011V40.6432H42.7924Z" fill="#292621"/>
<path d="M59.1523 49.3837L58.3252 46.3892H54.3289L53.4321 49.3837H49.7231L54.3202 34.2549H59.1436L63.8103 49.3837H59.1436H59.1523ZM55.1125 43.0995H57.5242L56.3227 38.7249L55.1212 43.0995H55.1125Z" fill="#292621"/>
<path d="M70.4008 37.9091V49.3837H66.0737V37.9091H62.9916V34.2549H73.4829V37.9091H70.4008Z" fill="#292621"/>
<path d="M82.5639 37.9091V49.3837H78.2368V37.9091H75.1547V34.2549H85.646V37.9091H82.5639Z" fill="#292621"/>
<path d="M98.349 45.7729V49.375H87.1698V34.2549H98.349V37.7441H91.6537V39.9401H97.0778V43.2992H91.6537V45.7729H98.349Z" fill="#292621"/>
<path d="M113.228 49.3837H108.161L105.993 43.603H104.565V49.3837H99.9423V34.2549H107.752C111.148 34.2549 113.15 35.9821 113.15 38.8378C113.15 40.4001 112.549 41.6066 111.339 42.327C111.113 42.4833 110.852 42.6221 110.538 42.7784L113.22 49.375L113.228 49.3837ZM104.565 40.3567H106.507C107.708 40.3567 108.405 39.836 108.405 38.9246C108.405 38.0132 107.761 37.4751 106.664 37.4751H104.565V40.3567Z" fill="#292621"/>
<path d="M113.629 45.0005L117.869 44.228C118.339 45.5647 119.096 46.0681 120.611 46.0681C121.726 46.0681 122.327 45.7296 122.327 45.1394C122.327 44.4623 121.9 44.1672 120.516 43.8895C118.661 43.5249 117.434 43.143 116.45 42.6222C115.135 41.9192 114.378 40.5825 114.378 39.0201C114.378 36.0083 116.807 34.0293 120.516 34.0293C123.572 34.0293 125.6 35.2792 126.567 37.7442L122.797 38.8986C122.353 37.831 121.639 37.4057 120.411 37.4057C119.453 37.4057 118.914 37.7442 118.914 38.3344C118.914 38.9247 119.244 39.1503 120.568 39.4194C121.526 39.6277 122.266 39.8013 122.753 39.9142C123.537 40.0964 124.251 40.3655 124.878 40.704C126.192 41.4505 126.976 42.8566 126.976 44.471C126.976 47.5523 124.32 49.5921 120.307 49.5921C118.139 49.5921 116.397 48.9758 115.17 47.752C114.325 46.9361 114.029 46.3892 113.629 44.9831V45.0005Z" fill="#292621"/>
<path d="M142.221 41.6674C142.221 46.4325 139.383 49.6006 135.143 49.6006C130.903 49.6006 128.047 46.4672 128.047 41.8236C128.047 37.1799 130.885 34.0205 135.186 34.0205C139.487 34.0205 142.221 37.0324 142.221 41.6587V41.6674ZM137.284 41.8496V41.4156C137.284 38.7162 136.614 37.449 135.186 37.449C133.758 37.449 132.931 39.0114 132.931 41.9364C132.931 44.8615 133.645 46.1548 135.117 46.1548C136.013 46.1548 136.675 45.608 136.945 44.7226C137.128 44.089 137.232 43.0908 137.276 41.8409L137.284 41.8496Z" fill="#292621"/>
<path d="M156.308 49.3837H152.582L148.516 42.7176L148.089 41.9278L147.619 41.0685C147.436 40.7734 147.332 40.5217 146.931 39.5929L147.062 40.1397C147.219 40.8428 147.288 41.4591 147.288 42.0666V49.3923H143.579V34.2549H147.889L151.372 39.8099C151.998 40.8341 152.573 41.893 152.93 42.7089C152.686 41.3028 152.573 39.9661 152.573 38.7423V34.2549H156.299V49.3837H156.308Z" fill="#292621"/>
<path d="M163.334 41.9453V45.4172H157.823V41.9453H163.334Z" fill="#292621"/>
<path d="M177.265 34.2549V44.28C177.265 46.0246 176.838 47.205 175.924 48.0643C174.81 49.1319 173.312 49.6093 171.257 49.6093C169.203 49.6093 167.392 49.0625 166.347 48.0904C165.433 47.2484 165.032 46.1635 165.032 44.5317V34.2549H169.673V43.9849C169.673 45.4344 170.256 46.068 171.571 46.068C172.999 46.068 173.669 45.3649 173.669 43.9588V34.2549H177.265Z" fill="#292621"/>
<path d="M186.032 37.9091V49.3837H181.705V37.9091H178.623V34.2549H189.114V37.9091H186.032Z" fill="#292621"/>
<path d="M195 34.2549V49.3837H190.403V34.2549H195Z" fill="#292621"/>
<path d="M1.21887 47.125C3.71764 53.3397 9.8035 57.7403 16.9341 57.7403C24.0648 57.7403 30.1506 53.3397 32.6494 47.125H1.21887Z" fill="#E51B24"/>
<path d="M11.6232 44.1999L15.4105 28.4027H15.4193H18.4665V28.4722L22.2365 44.1912H33.5288C33.7465 43.1149 33.8597 41.9952 33.8597 40.8495C33.8684 31.5361 26.285 23.9761 16.9342 23.9761C7.58338 23.9761 0 31.5361 0 40.8582C0 42.0039 0.113185 43.1149 0.339554 44.1999H11.6232Z" fill="#E51B24"/>
</svg>
